<svg width="21" height="22" viewBox="0 0 21 22" fill="none" xmlns="http://www.w3.org/2000/svg">
<path d="M6.19317 5.70945C6.19317 3.32338 8.12746 1.38908 10.5135 1.38908C11.6625 1.38421 12.7661 1.83724 13.5803 2.648C14.3945 3.45875 14.8522 4.56044 14.8522 5.70945M7.54786 10.2129H7.59363M13.3785 10.2129H13.4243M6.33047 20.6111H14.6783C17.7446 20.6111 20.097 19.5035 19.4289 15.0459L18.6508 9.00463C18.2389 6.78037 16.8202 5.92911 15.5753 5.92911H5.39683C4.13367 5.92911 2.79729 6.84445 2.32131 9.00463L1.54328 15.0459C0.975779 19.0001 3.26411 20.6111 6.33047 20.6111Z" stroke="#8F959E" stroke-width="1.5" stroke-linecap="round" stroke-linejoin="round"/>
</svg>
