<svg width="24" height="24" viewBox="0 0 24 24" fill="none" xmlns="http://www.w3.org/2000/svg">
<path fill-rule="evenodd" clip-rule="evenodd" d="M5 9C5 5.13 8.13 2 12 2C15.87 2 19 5.13 19 9C19 14.25 12 22 12 22C12 22 8.50061 18.1257 6.45028 14H12C14.7614 14 17 11.7614 17 9C17 6.23858 14.7614 4 12 4C9.23858 4 7 6.23858 7 9C7 10.1256 7.37194 11.1643 7.99963 12H5.59229C5.22418 10.9591 5 9.93952 5 9ZM12 12C13.6569 12 15 10.6569 15 9C15 7.34315 13.6569 6 12 6C10.3431 6 9 7.34315 9 9C9 10.6569 10.3431 12 12 12Z" fill="black"/>
</svg>
