<svg width="42" height="42" viewBox="0 0 42 42" fill="none" xmlns="http://www.w3.org/2000/svg">
<path d="M30 16.75H12C11.59 16.75 11.25 16.41 11.25 16C11.25 15.59 11.59 15.25 12 15.25H30C30.41 15.25 30.75 15.59 30.75 16C30.75 16.41 30.41 16.75 30 16.75Z" fill="white" fill-opacity="0.87"/>
<path d="M27 21.75H15C14.59 21.75 14.25 21.41 14.25 21C14.25 20.59 14.59 20.25 15 20.25H27C27.41 20.25 27.75 20.59 27.75 21C27.75 21.41 27.41 21.75 27 21.75Z" fill="white" fill-opacity="0.87"/>
<path d="M23 26.75H19C18.59 26.75 18.25 26.41 18.25 26C18.25 25.59 18.59 25.25 19 25.25H23C23.41 25.25 23.75 25.59 23.75 26C23.75 26.41 23.41 26.75 23 26.75Z" fill="white" fill-opacity="0.87"/>
</svg>
