<svg width="25" height="25" viewBox="0 0 25 25" fill="none" xmlns="http://www.w3.org/2000/svg">
<g clip-path="url(#clip0_1_10534)">
<path d="M19.441 16.1116L16.901 15.8216C16.291 15.7516 15.691 15.9616 15.261 16.3916L13.421 18.2316C10.591 16.7916 8.27098 14.4816 6.83098 11.6416L8.68098 9.79157C9.11098 9.36157 9.32098 8.76157 9.25098 8.15157L8.96098 5.63157C8.84098 4.62157 7.99098 3.86157 6.97098 3.86157H5.24098C4.11098 3.86157 3.17098 4.80157 3.24098 5.93157C3.77098 14.4716 10.601 21.2916 19.131 21.8216C20.261 21.8916 21.201 20.9516 21.201 19.8216V18.0916C21.211 17.0816 20.451 16.2316 19.441 16.1116Z" fill="black"/>
</g>
<defs>
<clipPath id="clip0_1_10534">
<rect width="24" height="24" fill="white" transform="translate(0.210938 0.851562)"/>
</clipPath>
</defs>
</svg>
